<mxfile host="app.diagrams.net" modified="2024-05-22T04:34:15.551Z" agent="Mozilla/5.0 (Windows NT 10.0; Win64; x64) AppleWebKit/537.36 (KHTML, like Gecko) Chrome/125.0.0.0 Safari/537.36" etag="xoPXXVupJOVmhUCn9z2j" version="24.4.4" type="github">
  <diagram name="Page-1" id="52a04d89-c75d-2922-d76d-85b35f80e030">
    <mxGraphModel dx="1050" dy="1734" grid="0" gridSize="10" guides="1" tooltips="1" connect="1" arrows="1" fold="1" page="1" pageScale="1" pageWidth="1654" pageHeight="1169" background="none" math="0" shadow="0">
      <root>
        <mxCell id="0" />
        <mxCell id="1" parent="0" />
        <mxCell id="6lL3Y8PbW4Xo40wKe9JE-7" style="edgeStyle=orthogonalEdgeStyle;rounded=0;orthogonalLoop=1;jettySize=auto;html=1;" parent="1" source="EsKlLs60dFWZXzVdOSOn-10" target="EsKlLs60dFWZXzVdOSOn-14" edge="1">
          <mxGeometry relative="1" as="geometry" />
        </mxCell>
        <mxCell id="ZVAVOgew7G1M3VcpClp4-3" style="edgeStyle=orthogonalEdgeStyle;rounded=0;orthogonalLoop=1;jettySize=auto;html=1;entryX=0.5;entryY=0;entryDx=0;entryDy=0;" parent="1" source="EsKlLs60dFWZXzVdOSOn-10" target="EsKlLs60dFWZXzVdOSOn-16" edge="1">
          <mxGeometry relative="1" as="geometry">
            <Array as="points">
              <mxPoint x="1619" y="-76" />
            </Array>
          </mxGeometry>
        </mxCell>
        <mxCell id="EsKlLs60dFWZXzVdOSOn-10" value="&lt;b&gt;Login&lt;/b&gt;" style="rounded=0;whiteSpace=wrap;html=1;" parent="1" vertex="1">
          <mxGeometry x="791" y="-106" width="124" height="60" as="geometry" />
        </mxCell>
        <mxCell id="IvkqXY0jGmw6ENPNXuID-27" style="edgeStyle=orthogonalEdgeStyle;rounded=0;orthogonalLoop=1;jettySize=auto;html=1;exitX=0.5;exitY=1;exitDx=0;exitDy=0;" parent="1" source="EsKlLs60dFWZXzVdOSOn-12" target="EsKlLs60dFWZXzVdOSOn-18" edge="1">
          <mxGeometry relative="1" as="geometry" />
        </mxCell>
        <mxCell id="EsKlLs60dFWZXzVdOSOn-12" value="&lt;b&gt;Sale Home Page&amp;nbsp;&lt;/b&gt;" style="rounded=0;whiteSpace=wrap;html=1;" parent="1" vertex="1">
          <mxGeometry x="213" y="146" width="120" height="60" as="geometry" />
        </mxCell>
        <mxCell id="EsKlLs60dFWZXzVdOSOn-13" value="&lt;b&gt;&lt;br&gt;Site Home Page&amp;nbsp;&lt;/b&gt;&lt;div&gt;&lt;br&gt;&lt;/div&gt;" style="rounded=0;whiteSpace=wrap;html=1;" parent="1" vertex="1">
          <mxGeometry x="1151" y="141" width="120" height="60" as="geometry" />
        </mxCell>
        <mxCell id="6lL3Y8PbW4Xo40wKe9JE-6" style="edgeStyle=orthogonalEdgeStyle;rounded=0;orthogonalLoop=1;jettySize=auto;html=1;" parent="1" source="EsKlLs60dFWZXzVdOSOn-14" target="qVo2DtCFdnWFQjltLhzl-6" edge="1">
          <mxGeometry relative="1" as="geometry" />
        </mxCell>
        <mxCell id="EsKlLs60dFWZXzVdOSOn-14" value="&lt;b&gt;&lt;br&gt;&lt;span style=&quot;color: rgb(0, 0, 0); font-family: Helvetica; font-size: 12px; font-style: normal; font-variant-ligatures: normal; font-variant-caps: normal; letter-spacing: normal; orphans: 2; text-align: center; text-indent: 0px; text-transform: none; widows: 2; word-spacing: 0px; -webkit-text-stroke-width: 0px; white-space: normal; background-color: rgb(251, 251, 251); text-decoration-thickness: initial; text-decoration-style: initial; text-decoration-color: initial; float: none; display: inline !important;&quot;&gt;Quản lý quốc tế Home Page&amp;nbsp;&lt;/span&gt;&lt;/b&gt;&lt;div&gt;&lt;br&gt;&lt;/div&gt;" style="rounded=0;whiteSpace=wrap;html=1;" parent="1" vertex="1">
          <mxGeometry x="793" y="140" width="120" height="61" as="geometry" />
        </mxCell>
        <mxCell id="jbLtVcOsK_2qRS4H-PiG-4" style="edgeStyle=orthogonalEdgeStyle;rounded=0;orthogonalLoop=1;jettySize=auto;html=1;exitX=0.5;exitY=1;exitDx=0;exitDy=0;entryX=0.5;entryY=0;entryDx=0;entryDy=0;" parent="1" source="EsKlLs60dFWZXzVdOSOn-16" target="EsKlLs60dFWZXzVdOSOn-38" edge="1">
          <mxGeometry relative="1" as="geometry" />
        </mxCell>
        <mxCell id="jbLtVcOsK_2qRS4H-PiG-7" style="edgeStyle=orthogonalEdgeStyle;rounded=0;orthogonalLoop=1;jettySize=auto;html=1;exitX=0.5;exitY=1;exitDx=0;exitDy=0;entryX=0.5;entryY=0;entryDx=0;entryDy=0;" parent="1" source="EsKlLs60dFWZXzVdOSOn-16" target="EsKlLs60dFWZXzVdOSOn-39" edge="1">
          <mxGeometry relative="1" as="geometry" />
        </mxCell>
        <mxCell id="jbLtVcOsK_2qRS4H-PiG-8" style="edgeStyle=orthogonalEdgeStyle;rounded=0;orthogonalLoop=1;jettySize=auto;html=1;exitX=0.5;exitY=1;exitDx=0;exitDy=0;" parent="1" source="EsKlLs60dFWZXzVdOSOn-16" target="EsKlLs60dFWZXzVdOSOn-40" edge="1">
          <mxGeometry relative="1" as="geometry" />
        </mxCell>
        <mxCell id="ZVAVOgew7G1M3VcpClp4-13" style="edgeStyle=orthogonalEdgeStyle;rounded=0;orthogonalLoop=1;jettySize=auto;html=1;entryX=0.5;entryY=0;entryDx=0;entryDy=0;" parent="1" source="EsKlLs60dFWZXzVdOSOn-16" target="YizMEMNq-1YltZXNzZyN-6" edge="1">
          <mxGeometry relative="1" as="geometry">
            <Array as="points">
              <mxPoint x="1619" y="229" />
              <mxPoint x="1952" y="229" />
            </Array>
          </mxGeometry>
        </mxCell>
        <mxCell id="EsKlLs60dFWZXzVdOSOn-16" value="&lt;b&gt;Bộ phận quản lý kho&amp;nbsp;&lt;/b&gt;&lt;div&gt;&lt;b&gt;Home Page&lt;/b&gt;&lt;/div&gt;" style="rounded=0;whiteSpace=wrap;html=1;" parent="1" vertex="1">
          <mxGeometry x="1546" y="141" width="146" height="49" as="geometry" />
        </mxCell>
        <mxCell id="IvkqXY0jGmw6ENPNXuID-17" style="edgeStyle=orthogonalEdgeStyle;rounded=0;orthogonalLoop=1;jettySize=auto;html=1;entryX=0;entryY=0.5;entryDx=0;entryDy=0;" parent="1" source="EsKlLs60dFWZXzVdOSOn-18" target="EsKlLs60dFWZXzVdOSOn-25" edge="1">
          <mxGeometry relative="1" as="geometry" />
        </mxCell>
        <mxCell id="EsKlLs60dFWZXzVdOSOn-18" value="&lt;b&gt;Danh sách mặt hàng&amp;nbsp;&lt;/b&gt;&lt;div&gt;&lt;b&gt;Page&lt;/b&gt;&lt;/div&gt;" style="rounded=0;whiteSpace=wrap;html=1;" parent="1" vertex="1">
          <mxGeometry x="85" y="255" width="130" height="60" as="geometry" />
        </mxCell>
        <mxCell id="EsKlLs60dFWZXzVdOSOn-20" value="&lt;b&gt;Nhập thông tin&lt;/b&gt;&lt;div&gt;&lt;b&gt;&amp;nbsp;mặt hàng&lt;/b&gt;&lt;/div&gt;" style="rounded=0;whiteSpace=wrap;html=1;" parent="1" vertex="1">
          <mxGeometry x="85" y="407" width="120" height="60" as="geometry" />
        </mxCell>
        <mxCell id="EsKlLs60dFWZXzVdOSOn-21" value="&lt;b&gt;Pop up :&amp;nbsp;&lt;/b&gt;&lt;div&gt;&lt;b&gt;Thông báo đã thêm vào giỏ&lt;/b&gt;&lt;/div&gt;" style="rounded=0;whiteSpace=wrap;html=1;" parent="1" vertex="1">
          <mxGeometry y="549" width="120" height="60" as="geometry" />
        </mxCell>
        <mxCell id="EsKlLs60dFWZXzVdOSOn-22" value="&#xa;&lt;b style=&quot;forced-color-adjust: none; color: rgb(0, 0, 0); font-family: Helvetica; font-size: 12px; font-style: normal; font-variant-ligatures: normal; font-variant-caps: normal; letter-spacing: normal; orphans: 2; text-align: center; text-indent: 0px; text-transform: none; widows: 2; word-spacing: 0px; -webkit-text-stroke-width: 0px; white-space: normal; background-color: rgb(251, 251, 251); text-decoration-thickness: initial; text-decoration-style: initial; text-decoration-color: initial;&quot;&gt;Pop up :&amp;nbsp;&lt;/b&gt;&lt;div style=&quot;forced-color-adjust: none; color: rgb(0, 0, 0); font-family: Helvetica; font-size: 12px; font-style: normal; font-variant-ligatures: normal; font-variant-caps: normal; font-weight: 400; letter-spacing: normal; orphans: 2; text-align: center; text-indent: 0px; text-transform: none; widows: 2; word-spacing: 0px; -webkit-text-stroke-width: 0px; white-space: normal; background-color: rgb(251, 251, 251); text-decoration-thickness: initial; text-decoration-style: initial; text-decoration-color: initial;&quot;&gt;&lt;b style=&quot;forced-color-adjust: none;&quot;&gt;Thông báo điền sai thông tin&amp;nbsp;&lt;/b&gt;&lt;/div&gt;&#xa;&#xa;" style="rounded=0;whiteSpace=wrap;html=1;" parent="1" vertex="1">
          <mxGeometry x="156" y="549" width="120" height="60" as="geometry" />
        </mxCell>
        <mxCell id="EsKlLs60dFWZXzVdOSOn-25" value="&lt;b&gt;Chi tiết danh sách mặt hàng cần đặt&amp;nbsp;&lt;/b&gt;&lt;div&gt;&lt;b&gt;Page&lt;/b&gt;&lt;/div&gt;" style="rounded=0;whiteSpace=wrap;html=1;" parent="1" vertex="1">
          <mxGeometry x="337" y="255" width="120" height="60" as="geometry" />
        </mxCell>
        <mxCell id="jbLtVcOsK_2qRS4H-PiG-10" style="edgeStyle=orthogonalEdgeStyle;rounded=0;orthogonalLoop=1;jettySize=auto;html=1;exitX=0.5;exitY=1;exitDx=0;exitDy=0;entryX=0.5;entryY=0;entryDx=0;entryDy=0;" parent="1" source="EsKlLs60dFWZXzVdOSOn-38" target="jbLtVcOsK_2qRS4H-PiG-9" edge="1">
          <mxGeometry relative="1" as="geometry" />
        </mxCell>
        <mxCell id="EsKlLs60dFWZXzVdOSOn-38" value="&lt;b&gt;Danh sách mặt hàng cần nhận Page&lt;/b&gt;" style="rounded=0;whiteSpace=wrap;html=1;" parent="1" vertex="1">
          <mxGeometry x="1379" y="271" width="147" height="60" as="geometry" />
        </mxCell>
        <mxCell id="jbLtVcOsK_2qRS4H-PiG-25" style="edgeStyle=orthogonalEdgeStyle;rounded=0;orthogonalLoop=1;jettySize=auto;html=1;exitX=0.5;exitY=1;exitDx=0;exitDy=0;entryX=1;entryY=0.5;entryDx=0;entryDy=0;" parent="1" source="EsKlLs60dFWZXzVdOSOn-39" target="jbLtVcOsK_2qRS4H-PiG-9" edge="1">
          <mxGeometry relative="1" as="geometry" />
        </mxCell>
        <mxCell id="EsKlLs60dFWZXzVdOSOn-39" value="&lt;b&gt;Danh sách mặt hàng chưa nhận Page&lt;/b&gt;" style="rounded=0;whiteSpace=wrap;html=1;" parent="1" vertex="1">
          <mxGeometry x="1568" y="271" width="120" height="60" as="geometry" />
        </mxCell>
        <mxCell id="EsKlLs60dFWZXzVdOSOn-40" value="&lt;b&gt;Danh mặt hàng đã nhận Page&lt;/b&gt;" style="rounded=0;whiteSpace=wrap;html=1;" parent="1" vertex="1">
          <mxGeometry x="1730" y="271" width="120" height="60" as="geometry" />
        </mxCell>
        <mxCell id="IvkqXY0jGmw6ENPNXuID-8" value="" style="endArrow=open;html=1;endSize=12;startArrow=diamondThin;startSize=14;startFill=0;edgeStyle=orthogonalEdgeStyle;align=left;verticalAlign=bottom;rounded=0;exitX=0.618;exitY=0.99;exitDx=0;exitDy=0;exitPerimeter=0;" parent="1" source="EsKlLs60dFWZXzVdOSOn-20" target="EsKlLs60dFWZXzVdOSOn-22" edge="1">
          <mxGeometry x="-1" y="282" relative="1" as="geometry">
            <mxPoint x="82" y="348" as="sourcePoint" />
            <mxPoint x="494" y="438" as="targetPoint" />
            <mxPoint x="-257" y="167" as="offset" />
          </mxGeometry>
        </mxCell>
        <mxCell id="IvkqXY0jGmw6ENPNXuID-16" value="" style="endArrow=open;html=1;endSize=12;startArrow=diamondThin;startSize=14;startFill=0;edgeStyle=orthogonalEdgeStyle;align=left;verticalAlign=bottom;rounded=0;exitX=0.25;exitY=1;exitDx=0;exitDy=0;" parent="1" source="EsKlLs60dFWZXzVdOSOn-20" target="EsKlLs60dFWZXzVdOSOn-21" edge="1">
          <mxGeometry x="-0.0965" y="-138" relative="1" as="geometry">
            <mxPoint x="18" y="294" as="sourcePoint" />
            <mxPoint x="-22" y="355" as="targetPoint" />
            <mxPoint x="79" y="-125" as="offset" />
          </mxGeometry>
        </mxCell>
        <mxCell id="IvkqXY0jGmw6ENPNXuID-19" value="&lt;b&gt;Pop up :&amp;nbsp;&lt;/b&gt;&lt;div&gt;&lt;b&gt;Thông báo đã tạo danh sách đặt hàng&lt;/b&gt;&lt;/div&gt;" style="rounded=0;whiteSpace=wrap;html=1;" parent="1" vertex="1">
          <mxGeometry x="293" y="549" width="120" height="60" as="geometry" />
        </mxCell>
        <mxCell id="IvkqXY0jGmw6ENPNXuID-29" value="&lt;b&gt;Pop up :&amp;nbsp;&lt;/b&gt;&lt;div&gt;&lt;b&gt;Thông báo đã xóa mặt hàng&amp;nbsp;&lt;/b&gt;&lt;/div&gt;" style="rounded=0;whiteSpace=wrap;html=1;" parent="1" vertex="1">
          <mxGeometry x="431" y="546" width="120" height="60" as="geometry" />
        </mxCell>
        <UserObject label="Lựa chọn mặt hàng cần đặt" placeholders="1" name="Variable" id="IvkqXY0jGmw6ENPNXuID-39">
          <mxCell style="text;html=1;strokeColor=none;fillColor=none;align=center;verticalAlign=middle;whiteSpace=wrap;overflow=hidden;" parent="1" vertex="1">
            <mxGeometry x="62" y="335.5" width="84" height="53" as="geometry" />
          </mxCell>
        </UserObject>
        <UserObject label="Nhập thông tin sai" placeholders="1" name="Variable" id="IvkqXY0jGmw6ENPNXuID-40">
          <mxCell style="text;html=1;strokeColor=none;fillColor=none;align=center;verticalAlign=middle;whiteSpace=wrap;overflow=hidden;" parent="1" vertex="1">
            <mxGeometry x="185" y="487" width="106" height="34" as="geometry" />
          </mxCell>
        </UserObject>
        <UserObject label="Nhập thành công" placeholders="1" name="Variable" id="IvkqXY0jGmw6ENPNXuID-41">
          <mxCell style="text;html=1;strokeColor=none;fillColor=none;align=center;verticalAlign=middle;whiteSpace=wrap;overflow=hidden;" parent="1" vertex="1">
            <mxGeometry x="9.5" y="487" width="101" height="34" as="geometry" />
          </mxCell>
        </UserObject>
        <UserObject label="Chọn&quot;Sửa&quot; mặt hàng" placeholders="1" name="Variable" id="IvkqXY0jGmw6ENPNXuID-42">
          <mxCell style="text;html=1;strokeColor=none;fillColor=none;align=center;verticalAlign=middle;whiteSpace=wrap;overflow=hidden;" parent="1" vertex="1">
            <mxGeometry x="201" y="345" width="79" height="34" as="geometry" />
          </mxCell>
        </UserObject>
        <UserObject label="Chọn &quot;Xóa&quot; mặt hàng" placeholders="1" name="Variable" id="IvkqXY0jGmw6ENPNXuID-44">
          <mxCell style="text;html=1;strokeColor=none;fillColor=none;align=center;verticalAlign=middle;whiteSpace=wrap;overflow=hidden;" parent="1" vertex="1">
            <mxGeometry x="416" y="373" width="80" height="34" as="geometry" />
          </mxCell>
        </UserObject>
        <UserObject label="Chọn &quot;Xác nhận&quot;&amp;nbsp;" placeholders="1" name="Variable" id="IvkqXY0jGmw6ENPNXuID-43">
          <mxCell style="text;html=1;strokeColor=none;fillColor=none;align=center;verticalAlign=middle;whiteSpace=wrap;overflow=hidden;" parent="1" vertex="1">
            <mxGeometry x="297" y="365" width="98" height="34" as="geometry" />
          </mxCell>
        </UserObject>
        <mxCell id="IvkqXY0jGmw6ENPNXuID-49" value="" style="endArrow=open;html=1;endSize=12;startArrow=diamondThin;startSize=14;startFill=0;edgeStyle=orthogonalEdgeStyle;align=left;verticalAlign=bottom;rounded=0;entryX=0.5;entryY=0;entryDx=0;entryDy=0;exitX=1;exitY=0.5;exitDx=0;exitDy=0;" parent="1" source="EsKlLs60dFWZXzVdOSOn-25" target="IvkqXY0jGmw6ENPNXuID-29" edge="1">
          <mxGeometry x="-1" y="106" relative="1" as="geometry">
            <mxPoint x="583" y="336" as="sourcePoint" />
            <mxPoint x="743" y="336" as="targetPoint" />
            <mxPoint x="-50" y="13" as="offset" />
          </mxGeometry>
        </mxCell>
        <mxCell id="IvkqXY0jGmw6ENPNXuID-50" value="" style="endArrow=open;html=1;endSize=12;startArrow=diamondThin;startSize=14;startFill=0;edgeStyle=orthogonalEdgeStyle;align=left;verticalAlign=bottom;rounded=0;entryX=1;entryY=0.5;entryDx=0;entryDy=0;exitX=0.003;exitY=0.89;exitDx=0;exitDy=0;exitPerimeter=0;" parent="1" source="EsKlLs60dFWZXzVdOSOn-25" target="EsKlLs60dFWZXzVdOSOn-20" edge="1">
          <mxGeometry x="-1" y="218" relative="1" as="geometry">
            <mxPoint x="305" y="366" as="sourcePoint" />
            <mxPoint x="514" y="417" as="targetPoint" />
            <mxPoint x="-218" y="211" as="offset" />
          </mxGeometry>
        </mxCell>
        <mxCell id="qVo2DtCFdnWFQjltLhzl-59" style="edgeStyle=orthogonalEdgeStyle;rounded=0;orthogonalLoop=1;jettySize=auto;html=1;exitX=0.5;exitY=1;exitDx=0;exitDy=0;entryX=0.5;entryY=0;entryDx=0;entryDy=0;" parent="1" source="qVo2DtCFdnWFQjltLhzl-6" target="qVo2DtCFdnWFQjltLhzl-39" edge="1">
          <mxGeometry relative="1" as="geometry" />
        </mxCell>
        <mxCell id="qVo2DtCFdnWFQjltLhzl-6" value="&lt;b&gt;List DSMHCD&amp;nbsp;&lt;/b&gt;&lt;b style=&quot;background-color: initial;&quot;&gt;Page&lt;/b&gt;" style="rounded=0;whiteSpace=wrap;html=1;" parent="1" vertex="1">
          <mxGeometry x="662" y="265" width="167.5" height="64" as="geometry" />
        </mxCell>
        <mxCell id="86HylTId_1ZEmUur1ihp-1" value="Chọn &quot;Tạo danh sách&quot;" style="text;html=1;align=center;verticalAlign=middle;resizable=0;points=[];autosize=1;strokeColor=none;fillColor=none;" parent="1" vertex="1">
          <mxGeometry x="210" y="260" width="138" height="26" as="geometry" />
        </mxCell>
        <mxCell id="qVo2DtCFdnWFQjltLhzl-8" style="edgeStyle=orthogonalEdgeStyle;rounded=0;orthogonalLoop=1;jettySize=auto;html=1;exitX=0.5;exitY=1;exitDx=0;exitDy=0;" parent="1" source="EsKlLs60dFWZXzVdOSOn-10" target="EsKlLs60dFWZXzVdOSOn-10" edge="1">
          <mxGeometry relative="1" as="geometry" />
        </mxCell>
        <mxCell id="qVo2DtCFdnWFQjltLhzl-68" style="edgeStyle=orthogonalEdgeStyle;rounded=0;orthogonalLoop=1;jettySize=auto;html=1;exitX=0.5;exitY=1;exitDx=0;exitDy=0;entryX=0.5;entryY=0;entryDx=0;entryDy=0;" parent="1" source="qVo2DtCFdnWFQjltLhzl-36" target="qVo2DtCFdnWFQjltLhzl-67" edge="1">
          <mxGeometry relative="1" as="geometry" />
        </mxCell>
        <mxCell id="qVo2DtCFdnWFQjltLhzl-36" value="&lt;b&gt;List đơn bị hủy Page&lt;/b&gt;" style="rounded=0;whiteSpace=wrap;html=1;" parent="1" vertex="1">
          <mxGeometry x="976" y="265" width="150" height="62" as="geometry" />
        </mxCell>
        <mxCell id="qVo2DtCFdnWFQjltLhzl-37" value="" style="endArrow=block;endFill=1;html=1;edgeStyle=orthogonalEdgeStyle;align=left;verticalAlign=top;rounded=0;exitX=0.5;exitY=1;exitDx=0;exitDy=0;" parent="1" source="EsKlLs60dFWZXzVdOSOn-14" target="qVo2DtCFdnWFQjltLhzl-36" edge="1">
          <mxGeometry x="-1" relative="1" as="geometry">
            <mxPoint x="694" y="352" as="sourcePoint" />
            <mxPoint x="854" y="352" as="targetPoint" />
          </mxGeometry>
        </mxCell>
        <mxCell id="6lL3Y8PbW4Xo40wKe9JE-11" value="" style="endArrow=open;html=1;endSize=12;startArrow=diamondThin;startSize=14;startFill=0;edgeStyle=orthogonalEdgeStyle;align=left;verticalAlign=bottom;rounded=0;entryX=0.5;entryY=0;entryDx=0;entryDy=0;" parent="1" target="IvkqXY0jGmw6ENPNXuID-19" edge="1">
          <mxGeometry x="-1" y="3" relative="1" as="geometry">
            <mxPoint x="393" y="313" as="sourcePoint" />
            <mxPoint x="474" y="362" as="targetPoint" />
          </mxGeometry>
        </mxCell>
        <mxCell id="qVo2DtCFdnWFQjltLhzl-52" style="edgeStyle=orthogonalEdgeStyle;rounded=0;orthogonalLoop=1;jettySize=auto;html=1;exitX=0.25;exitY=1;exitDx=0;exitDy=0;entryX=0.75;entryY=0;entryDx=0;entryDy=0;" parent="1" source="qVo2DtCFdnWFQjltLhzl-39" target="qVo2DtCFdnWFQjltLhzl-42" edge="1">
          <mxGeometry relative="1" as="geometry" />
        </mxCell>
        <mxCell id="qVo2DtCFdnWFQjltLhzl-39" value="&lt;b&gt;Xử lý danh sách&amp;nbsp;&lt;/b&gt;&lt;b style=&quot;background-color: initial;&quot;&gt;Page&lt;/b&gt;" style="rounded=0;whiteSpace=wrap;html=1;" parent="1" vertex="1">
          <mxGeometry x="660.5" y="442" width="169" height="69" as="geometry" />
        </mxCell>
        <mxCell id="qVo2DtCFdnWFQjltLhzl-42" value="&lt;b&gt;Chi tiết đơn hàng&lt;/b&gt;" style="rounded=0;whiteSpace=wrap;html=1;" parent="1" vertex="1">
          <mxGeometry x="613" y="610" width="120" height="60" as="geometry" />
        </mxCell>
        <mxCell id="qVo2DtCFdnWFQjltLhzl-45" value="&lt;b&gt;Pop up :&amp;nbsp;&lt;/b&gt;&lt;div&gt;&lt;b&gt;Thông báo đặt hàng thành công&lt;/b&gt;&lt;/div&gt;" style="rounded=0;whiteSpace=wrap;html=1;" parent="1" vertex="1">
          <mxGeometry x="616" y="762" width="132" height="65" as="geometry" />
        </mxCell>
        <mxCell id="jbLtVcOsK_2qRS4H-PiG-13" style="edgeStyle=orthogonalEdgeStyle;rounded=0;orthogonalLoop=1;jettySize=auto;html=1;exitX=0.5;exitY=1;exitDx=0;exitDy=0;" parent="1" source="jbLtVcOsK_2qRS4H-PiG-9" target="jbLtVcOsK_2qRS4H-PiG-12" edge="1">
          <mxGeometry relative="1" as="geometry" />
        </mxCell>
        <mxCell id="jbLtVcOsK_2qRS4H-PiG-9" value="&lt;b&gt;Danh sách mặt hàng trùng mã&lt;/b&gt;" style="rounded=0;whiteSpace=wrap;html=1;" parent="1" vertex="1">
          <mxGeometry x="1381" y="421" width="145" height="60" as="geometry" />
        </mxCell>
        <mxCell id="qVo2DtCFdnWFQjltLhzl-46" value="&lt;b&gt;Pop up :&amp;nbsp;&lt;/b&gt;&lt;div&gt;&lt;b&gt;Thông báo đã thêm vào đơn&lt;/b&gt;&lt;/div&gt;" style="rounded=0;whiteSpace=wrap;html=1;" parent="1" vertex="1">
          <mxGeometry x="774" y="572" width="127" height="65" as="geometry" />
        </mxCell>
        <mxCell id="jbLtVcOsK_2qRS4H-PiG-12" value="&lt;b&gt;Form Nhập thông tin mặt hàng&lt;/b&gt;" style="rounded=0;whiteSpace=wrap;html=1;" parent="1" vertex="1">
          <mxGeometry x="1383" y="552" width="143" height="60" as="geometry" />
        </mxCell>
        <mxCell id="jbLtVcOsK_2qRS4H-PiG-15" value="Chọn &quot;Cập nhật thông tin mặt hàng&quot;" style="text;html=1;align=center;verticalAlign=middle;whiteSpace=wrap;rounded=0;" parent="1" vertex="1">
          <mxGeometry x="1355" y="498" width="86" height="30" as="geometry" />
        </mxCell>
        <mxCell id="jbLtVcOsK_2qRS4H-PiG-11" value="Nhập mã mặt hàng được chuyển đến" style="text;html=1;align=center;verticalAlign=middle;whiteSpace=wrap;rounded=0;" parent="1" vertex="1">
          <mxGeometry x="1351" y="361" width="94" height="30" as="geometry" />
        </mxCell>
        <mxCell id="jWr-8pI-mbD326tFi4XF-2" value="" style="endArrow=open;html=1;endSize=12;startArrow=diamondThin;startSize=14;startFill=0;edgeStyle=orthogonalEdgeStyle;align=left;verticalAlign=bottom;rounded=0;entryX=0.5;entryY=0;entryDx=0;entryDy=0;exitX=0.682;exitY=1.026;exitDx=0;exitDy=0;exitPerimeter=0;" parent="1" source="qVo2DtCFdnWFQjltLhzl-39" target="qVo2DtCFdnWFQjltLhzl-46" edge="1">
          <mxGeometry x="-1" y="3" relative="1" as="geometry">
            <mxPoint x="749" y="498" as="sourcePoint" />
            <mxPoint x="909" y="498" as="targetPoint" />
          </mxGeometry>
        </mxCell>
        <mxCell id="jbLtVcOsK_2qRS4H-PiG-16" value="&lt;b&gt;Pop up:&amp;nbsp;&lt;/b&gt;&lt;div&gt;&lt;b&gt;Thông báo cập nhật trạng thái mặt hàng thất bại&lt;/b&gt;&lt;/div&gt;" style="rounded=0;whiteSpace=wrap;html=1;" parent="1" vertex="1">
          <mxGeometry x="1225" y="664" width="120" height="60" as="geometry" />
        </mxCell>
        <mxCell id="qVo2DtCFdnWFQjltLhzl-61" value="Chọn &quot;Xem&quot; một danh sách&lt;div&gt;&lt;br&gt;&lt;/div&gt;" style="text;html=1;align=center;verticalAlign=middle;resizable=0;points=[];autosize=1;strokeColor=none;fillColor=none;" parent="1" vertex="1">
          <mxGeometry x="581" y="355.5" width="165" height="41" as="geometry" />
        </mxCell>
        <mxCell id="qVo2DtCFdnWFQjltLhzl-62" value="Chọn &quot;Đặt hàng&lt;span style=&quot;background-color: initial;&quot;&gt;&quot;&amp;nbsp;&lt;/span&gt;&lt;div&gt;&lt;div&gt;&lt;br&gt;&lt;/div&gt;&lt;/div&gt;" style="text;html=1;align=center;verticalAlign=middle;resizable=0;points=[];autosize=1;strokeColor=none;fillColor=none;" parent="1" vertex="1">
          <mxGeometry x="597.5" y="549" width="111" height="41" as="geometry" />
        </mxCell>
        <mxCell id="jWr-8pI-mbD326tFi4XF-3" style="edgeStyle=orthogonalEdgeStyle;rounded=0;orthogonalLoop=1;jettySize=auto;html=1;entryX=0.42;entryY=0.043;entryDx=0;entryDy=0;entryPerimeter=0;" parent="1" source="EsKlLs60dFWZXzVdOSOn-10" target="EsKlLs60dFWZXzVdOSOn-12" edge="1">
          <mxGeometry relative="1" as="geometry" />
        </mxCell>
        <mxCell id="jbLtVcOsK_2qRS4H-PiG-19" value="" style="endArrow=open;html=1;endSize=12;startArrow=diamondThin;startSize=14;startFill=0;edgeStyle=orthogonalEdgeStyle;align=left;verticalAlign=bottom;rounded=0;exitX=0.25;exitY=1;exitDx=0;exitDy=0;entryX=0.5;entryY=0;entryDx=0;entryDy=0;" parent="1" source="jbLtVcOsK_2qRS4H-PiG-12" target="jbLtVcOsK_2qRS4H-PiG-16" edge="1">
          <mxGeometry x="-1" y="3" relative="1" as="geometry">
            <mxPoint x="1347" y="644" as="sourcePoint" />
            <mxPoint x="1507" y="644" as="targetPoint" />
          </mxGeometry>
        </mxCell>
        <mxCell id="jbLtVcOsK_2qRS4H-PiG-21" value="&lt;b&gt;Pop up:&amp;nbsp;&lt;/b&gt;&lt;div&gt;&lt;b&gt;Thông báo cập nhật trạng thái mặt hàng thành công&lt;/b&gt;&lt;/div&gt;" style="rounded=0;whiteSpace=wrap;html=1;" parent="1" vertex="1">
          <mxGeometry x="1394.5" y="669" width="120" height="60" as="geometry" />
        </mxCell>
        <mxCell id="jbLtVcOsK_2qRS4H-PiG-22" value="" style="endArrow=open;html=1;endSize=12;startArrow=diamondThin;startSize=14;startFill=0;edgeStyle=orthogonalEdgeStyle;align=left;verticalAlign=bottom;rounded=0;exitX=0.5;exitY=1;exitDx=0;exitDy=0;entryX=0.5;entryY=0;entryDx=0;entryDy=0;" parent="1" source="jbLtVcOsK_2qRS4H-PiG-12" target="jbLtVcOsK_2qRS4H-PiG-21" edge="1">
          <mxGeometry x="-1" y="3" relative="1" as="geometry">
            <mxPoint x="1498" y="646" as="sourcePoint" />
            <mxPoint x="1658" y="646" as="targetPoint" />
            <Array as="points" />
          </mxGeometry>
        </mxCell>
        <mxCell id="jbLtVcOsK_2qRS4H-PiG-23" value="Nhập thông tin lỗi" style="text;html=1;align=center;verticalAlign=middle;whiteSpace=wrap;rounded=0;" parent="1" vertex="1">
          <mxGeometry x="1289" y="603" width="69" height="30" as="geometry" />
        </mxCell>
        <mxCell id="qVo2DtCFdnWFQjltLhzl-64" value="Chọn &quot;Lưu&quot; đơn&lt;div&gt;&lt;br&gt;&lt;/div&gt;" style="text;html=1;align=center;verticalAlign=middle;resizable=0;points=[];autosize=1;strokeColor=none;fillColor=none;" parent="1" vertex="1">
          <mxGeometry x="791" y="516" width="104" height="41" as="geometry" />
        </mxCell>
        <mxCell id="qVo2DtCFdnWFQjltLhzl-65" value="Chọn &quot;&quot; một danh sách&lt;div&gt;&lt;br&gt;&lt;/div&gt;" style="text;html=1;align=center;verticalAlign=middle;resizable=0;points=[];autosize=1;strokeColor=none;fillColor=none;" parent="1" vertex="1">
          <mxGeometry x="675.25" y="708" width="141" height="41" as="geometry" />
        </mxCell>
        <mxCell id="jbLtVcOsK_2qRS4H-PiG-24" value="Nhập thông tin thành công" style="text;html=1;align=center;verticalAlign=middle;whiteSpace=wrap;rounded=0;" parent="1" vertex="1">
          <mxGeometry x="1467" y="625" width="79" height="30" as="geometry" />
        </mxCell>
        <mxCell id="qVo2DtCFdnWFQjltLhzl-66" style="edgeStyle=orthogonalEdgeStyle;rounded=0;orthogonalLoop=1;jettySize=auto;html=1;exitX=0.5;exitY=1;exitDx=0;exitDy=0;" parent="1" source="qVo2DtCFdnWFQjltLhzl-46" target="qVo2DtCFdnWFQjltLhzl-46" edge="1">
          <mxGeometry relative="1" as="geometry" />
        </mxCell>
        <mxCell id="jbLtVcOsK_2qRS4H-PiG-26" value="Nhập mã mặt hàng được chuyển đến" style="text;html=1;align=center;verticalAlign=middle;whiteSpace=wrap;rounded=0;" parent="1" vertex="1">
          <mxGeometry x="1530" y="361" width="94" height="30" as="geometry" />
        </mxCell>
        <mxCell id="jbLtVcOsK_2qRS4H-PiG-27" value="&lt;b&gt;Pop up:&amp;nbsp;&lt;/b&gt;&lt;div&gt;&lt;b&gt;Thông báo trạng thái mặt hàng giữ nguyên &quot;Chưa nhận&quot;&lt;/b&gt;&lt;/div&gt;" style="rounded=0;whiteSpace=wrap;html=1;" parent="1" vertex="1">
          <mxGeometry x="1587" y="666.5" width="126" height="60" as="geometry" />
        </mxCell>
        <mxCell id="jbLtVcOsK_2qRS4H-PiG-29" value="" style="endArrow=open;html=1;endSize=12;startArrow=diamondThin;startSize=14;startFill=0;edgeStyle=orthogonalEdgeStyle;align=left;verticalAlign=bottom;rounded=0;exitX=1;exitY=0.75;exitDx=0;exitDy=0;entryX=0.5;entryY=0;entryDx=0;entryDy=0;" parent="1" source="jbLtVcOsK_2qRS4H-PiG-12" target="jbLtVcOsK_2qRS4H-PiG-27" edge="1">
          <mxGeometry x="-1" y="3" relative="1" as="geometry">
            <mxPoint x="1634" y="629" as="sourcePoint" />
            <mxPoint x="1794" y="629" as="targetPoint" />
          </mxGeometry>
        </mxCell>
        <mxCell id="jbLtVcOsK_2qRS4H-PiG-30" value="Thông tin mặt hàng nhập không khớp thông tin trong đơn hàng" style="text;html=1;align=center;verticalAlign=middle;whiteSpace=wrap;rounded=0;" parent="1" vertex="1">
          <mxGeometry x="1658" y="609" width="102" height="30" as="geometry" />
        </mxCell>
        <mxCell id="qVo2DtCFdnWFQjltLhzl-71" style="edgeStyle=orthogonalEdgeStyle;rounded=0;orthogonalLoop=1;jettySize=auto;html=1;exitX=0;exitY=0.5;exitDx=0;exitDy=0;entryX=0.75;entryY=0;entryDx=0;entryDy=0;" parent="1" source="qVo2DtCFdnWFQjltLhzl-67" target="qVo2DtCFdnWFQjltLhzl-39" edge="1">
          <mxGeometry relative="1" as="geometry" />
        </mxCell>
        <mxCell id="qVo2DtCFdnWFQjltLhzl-67" value="&lt;b&gt;Chi tiết đơn bị hủy Page&lt;/b&gt;" style="rounded=0;whiteSpace=wrap;html=1;" parent="1" vertex="1">
          <mxGeometry x="987" y="379" width="128" height="58" as="geometry" />
        </mxCell>
        <mxCell id="qVo2DtCFdnWFQjltLhzl-72" value="Chọn &quot;Đặt lại đơn hàng&quot;&amp;nbsp;&lt;div&gt;&lt;br&gt;&lt;/div&gt;" style="text;html=1;align=center;verticalAlign=middle;resizable=0;points=[];autosize=1;strokeColor=none;fillColor=none;" parent="1" vertex="1">
          <mxGeometry x="815" y="361.5" width="150" height="41" as="geometry" />
        </mxCell>
        <mxCell id="qVo2DtCFdnWFQjltLhzl-74" value="Chọn &quot;Xem&quot; một đơn&lt;div&gt;&lt;br&gt;&lt;/div&gt;" style="text;html=1;align=center;verticalAlign=middle;resizable=0;points=[];autosize=1;strokeColor=none;fillColor=none;" parent="1" vertex="1">
          <mxGeometry x="923" y="332" width="131" height="41" as="geometry" />
        </mxCell>
        <mxCell id="jWr-8pI-mbD326tFi4XF-9" value="" style="endArrow=open;html=1;endSize=12;startArrow=diamondThin;startSize=14;startFill=0;edgeStyle=orthogonalEdgeStyle;align=left;verticalAlign=bottom;rounded=0;entryX=0.571;entryY=0.003;entryDx=0;entryDy=0;entryPerimeter=0;" parent="1" edge="1">
          <mxGeometry x="-1" y="3" relative="1" as="geometry">
            <mxPoint x="142" y="315" as="sourcePoint" />
            <mxPoint x="142" y="408" as="targetPoint" />
            <Array as="points">
              <mxPoint x="142" y="347" />
              <mxPoint x="142" y="347" />
            </Array>
          </mxGeometry>
        </mxCell>
        <mxCell id="YizMEMNq-1YltZXNzZyN-6" value="&lt;font style=&quot;font-size: 14px;&quot;&gt;Danh sách&lt;/font&gt;&lt;div&gt;&lt;font style=&quot;font-size: 14px;&quot;&gt;đơn hàng&lt;/font&gt;&lt;/div&gt;" style="rounded=0;whiteSpace=wrap;html=1;" parent="1" vertex="1">
          <mxGeometry x="1892" y="266" width="120" height="60" as="geometry" />
        </mxCell>
        <mxCell id="YizMEMNq-1YltZXNzZyN-11" value="&lt;font style=&quot;font-size: 14px;&quot;&gt;Nhấn vào nút &quot;Xem&quot;&lt;/font&gt;" style="text;html=1;align=center;verticalAlign=middle;resizable=0;points=[];autosize=1;strokeColor=none;fillColor=none;" parent="1" vertex="1">
          <mxGeometry x="1805" y="375.5" width="144" height="29" as="geometry" />
        </mxCell>
        <mxCell id="YizMEMNq-1YltZXNzZyN-21" value="" style="edgeStyle=orthogonalEdgeStyle;rounded=0;orthogonalLoop=1;jettySize=auto;html=1;exitX=0.5;exitY=1;exitDx=0;exitDy=0;" parent="1" source="YizMEMNq-1YltZXNzZyN-6" target="YizMEMNq-1YltZXNzZyN-8" edge="1">
          <mxGeometry relative="1" as="geometry">
            <mxPoint x="2274" y="375" as="sourcePoint" />
            <mxPoint x="2274" y="581" as="targetPoint" />
          </mxGeometry>
        </mxCell>
        <mxCell id="YizMEMNq-1YltZXNzZyN-8" value="&lt;font style=&quot;font-size: 14px;&quot;&gt;Xem chi tiết&amp;nbsp;&lt;/font&gt;&lt;div style=&quot;font-size: 14px;&quot;&gt;&lt;font style=&quot;font-size: 14px;&quot;&gt;đơn hàng&lt;/font&gt;&lt;/div&gt;" style="rounded=0;whiteSpace=wrap;html=1;" parent="1" vertex="1">
          <mxGeometry x="1892" y="451" width="120" height="60" as="geometry" />
        </mxCell>
        <mxCell id="ZVAVOgew7G1M3VcpClp4-16" value="" style="endArrow=open;html=1;endSize=12;startArrow=diamondThin;startSize=14;startFill=0;edgeStyle=orthogonalEdgeStyle;align=left;verticalAlign=bottom;rounded=0;entryX=0.571;entryY=0.003;entryDx=0;entryDy=0;entryPerimeter=0;" parent="1" edge="1">
          <mxGeometry x="-1" y="3" relative="1" as="geometry">
            <mxPoint x="672.33" y="670" as="sourcePoint" />
            <mxPoint x="672.33" y="763" as="targetPoint" />
            <Array as="points">
              <mxPoint x="672.33" y="702" />
              <mxPoint x="672.33" y="702" />
            </Array>
          </mxGeometry>
        </mxCell>
        <mxCell id="qVo2DtCFdnWFQjltLhzl-95" style="edgeStyle=orthogonalEdgeStyle;rounded=0;orthogonalLoop=1;jettySize=auto;html=1;exitX=1;exitY=0.75;exitDx=0;exitDy=0;entryX=0.5;entryY=0;entryDx=0;entryDy=0;" parent="1" target="EsKlLs60dFWZXzVdOSOn-13" edge="1">
          <mxGeometry relative="1" as="geometry">
            <mxPoint x="915" y="-76" as="sourcePoint" />
            <mxPoint x="1217" y="91" as="targetPoint" />
          </mxGeometry>
        </mxCell>
      </root>
    </mxGraphModel>
  </diagram>
</mxfile>
